<?xml version="1.0" standalone="no"?>
<!DOCTYPE svg PUBLIC "-//W3C//DTD SVG 20010904//EN"
 "http://www.w3.org/TR/2001/REC-SVG-20010904/DTD/svg10.dtd">
<svg version="1.0" xmlns="http://www.w3.org/2000/svg"
 width="900.000000pt" height="900.000000pt" viewBox="0 0 900.000000 900.000000"
 preserveAspectRatio="xMidYMid meet">
<metadata>
Created by potrace 1.14, written by Peter Selinger 2001-2017
</metadata>
<g transform="translate(0.000000,900.000000) scale(0.100000,-0.100000)"
fill="#000000" stroke="none">
<path d="M4249 8906 c-2 -2 -49 -6 -104 -10 -55 -3 -111 -8 -125 -10 -14 -3
-49 -7 -78 -10 -556 -62 -1220 -291 -1707 -589 -162 -99 -485 -327 -540 -381
-7 -6 -38 -33 -71 -61 -440 -374 -845 -900 -1095 -1422 -127 -266 -238 -566
-297 -808 -17 -66 -33 -133 -38 -150 -4 -16 -9 -39 -11 -50 -2 -11 -10 -51
-18 -90 -8 -38 -17 -92 -21 -120 -3 -27 -8 -58 -10 -69 -2 -10 -6 -44 -9 -75
-3 -31 -8 -65 -10 -76 -13 -66 -20 -245 -20 -495 0 -249 5 -354 20 -475 2 -16
7 -52 10 -80 5 -45 11 -81 31 -210 3 -22 7 -42 9 -45 2 -3 6 -26 10 -50 15
-107 137 -544 180 -645 7 -16 27 -68 45 -115 57 -146 163 -369 250 -525 28
-49 56 -100 62 -113 6 -12 15 -22 20 -22 4 0 8 -5 8 -12 0 -10 152 -244 187
-288 6 -8 46 -60 89 -115 266 -345 603 -665 967 -918 64 -45 129 -89 145 -97
15 -9 52 -31 82 -51 134 -87 549 -297 620 -314 3 0 52 -19 110 -42 251 -98
663 -206 915 -238 28 -3 64 -8 80 -10 34 -6 94 -12 215 -22 108 -10 611 -10
710 -1 229 23 416 50 555 83 36 8 80 17 98 21 40 7 42 8 97 23 25 7 54 15 64
17 54 10 329 103 461 156 145 58 466 211 529 253 17 11 51 31 76 44 81 44 352
228 461 313 312 243 591 526 818 828 39 52 75 100 79 105 62 79 238 370 330
545 133 255 301 699 347 917 2 10 15 65 28 123 22 92 32 141 52 265 10 63 15
92 20 140 3 28 8 64 10 80 21 141 29 712 12 860 -4 39 -10 90 -13 115 -119
1059 -617 2041 -1396 2755 -325 298 -658 525 -1063 724 -178 87 -429 187 -615
245 -128 39 -392 106 -475 119 -215 36 -282 46 -362 53 -37 3 -79 8 -93 11
-30 6 -625 15 -631 9z"/>
</g>
</svg>
